<?xml version="1.0" encoding="utf-8"?>
<!-- Generator: Adobe Illustrator 13.0.0, SVG Export Plug-In . SVG Version: 6.00 Build 14948)  -->
<!DOCTYPE svg PUBLIC "-//W3C//DTD SVG 1.1 Basic//EN" "http://www.w3.org/Graphics/SVG/1.1/DTD/svg11-basic.dtd">
<svg version="1.1" baseProfile="basic" id="Layer_1" xmlns="http://www.w3.org/2000/svg" xmlns:xlink="http://www.w3.org/1999/xlink" x="0px" y="0px" width="100px" height="60px"  viewBox="0 0 100 60" xml:space="preserve">
<path opacity="0.06" d="M88.001,57.002h-76C7.037,57.002,3,52.964,3,48V12c0-4.964,4.037-9.001,9.001-9.001h76
	c4.964,0,9.002,4.038,9.002,9.001v36C97.003,52.964,92.965,57.002,88.001,57.002L88.001,57.002z"/>
<path opacity="0.06" d="M88.001,56.002H12c-4.412,0-8.001-3.59-8.001-8.002V12c0-4.413,3.59-8.003,8.001-8.003h76.001
	c4.411,0,8.002,3.59,8.002,8.003v36C96.003,52.412,92.412,56.002,88.001,56.002L88.001,56.002z"/>
<path opacity="0.06" d="M88.001,55H12c-3.861,0-7.002-3.141-7.002-7V12.001C4.999,8.14,8.14,4.999,12,4.999h76
	c3.858,0,7,3.141,7,7.002V48C95.001,51.859,91.859,55,88.001,55L88.001,55z"/>
<path fill="#999999" d="M12,6h76c3.312,0,6,2.687,6,6v36c0,3.312-2.688,6-6,6H12c-3.313,0-6-2.688-6-6V12C6,8.687,8.687,6,12,6z"/>
<path fill="#FFFFFF" d="M88.001,52h-76C9.793,52,8,50.206,8,47.999V12c0-2.205,1.794-3.999,4.001-3.999h76
	C90.206,8.001,92,9.795,92,12v35.999C92,50.206,90.206,52,88.001,52L88.001,52z"/>
</svg>
