<?xml version="1.0" encoding="utf-8"?>
<!-- Generator: Adobe Illustrator 13.0.0, SVG Export Plug-In . SVG Version: 6.00 Build 14948)  -->
<!DOCTYPE svg PUBLIC "-//W3C//DTD SVG 1.1 Basic//EN" "http://www.w3.org/Graphics/SVG/1.1/DTD/svg11-basic.dtd">
<svg version="1.1" baseProfile="basic" id="Layer_1"
	 xmlns="http://www.w3.org/2000/svg" xmlns:xlink="http://www.w3.org/1999/xlink" x="0px" y="0px" width="58px" height="58px"
	 viewBox="0 0 58 58" xml:space="preserve">
<path fill="#999999" d="M29,5c13.255,0,24,10.745,24,24S42.255,53,29,53S5,42.255,5,29S15.745,5,29,5z"/>
<path fill="#FFFFFF" d="M29,50.999C16.869,50.999,7,41.13,7,29C7,16.869,16.869,7,29,7c12.129,0,21.999,9.869,21.999,22
	C50.999,41.13,41.13,50.999,29,50.999L29,50.999z"/>
<path fill="#999999" d="M28.999,49.499c-11.304,0-20.5-9.196-20.5-20.5c0-11.304,9.196-20.5,20.5-20.5
	c11.304,0,20.5,9.196,20.5,20.5C49.499,40.303,40.303,49.499,28.999,49.499L28.999,49.499z"/>
<path fill="#FFFFFF" d="M28.999,47.499c-10.201,0-18.5-8.3-18.5-18.5c0-10.201,8.298-18.5,18.5-18.5c10.201,0,18.5,8.298,18.5,18.5
	C47.499,39.199,39.199,47.499,28.999,47.499L28.999,47.499z"/>
</svg>
