<?xml version="1.0" encoding="utf-8"?>
<!-- Generator: Adobe Illustrator 13.0.0, SVG Export Plug-In . SVG Version: 6.00 Build 14948)  -->
<!DOCTYPE svg PUBLIC "-//W3C//DTD SVG 1.1 Basic//EN" "http://www.w3.org/Graphics/SVG/1.1/DTD/svg11-basic.dtd">
<svg version="1.1" baseProfile="basic" id="Layer_1"
	 xmlns="http://www.w3.org/2000/svg" xmlns:xlink="http://www.w3.org/1999/xlink" x="0px" y="0px" width="42px" height="42px"
	 viewBox="0 0 42 42" xml:space="preserve">
<polygon opacity="0.06" points="20.502,40.742 19.795,40.035 19.088,39.328 18.383,38.623 2.379,22.623 1.672,21.916 0.965,21.209 
	0.258,20.502 0.965,19.795 1.672,19.088 2.379,18.381 18.381,2.379 19.088,1.672 19.795,0.965 20.502,0.258 21.209,0.965 
	21.916,1.672 22.623,2.379 38.623,18.381 39.328,19.09 40.035,19.795 40.742,20.502 40.035,21.209 39.328,21.916 38.623,22.621 
	22.623,38.623 21.914,39.328 21.209,40.035 "/>
<polygon opacity="0.06" points="20.501,39.328 19.794,38.622 19.088,37.915 3.086,21.916 2.379,21.209 1.673,20.501 2.379,19.794 
	3.086,19.088 19.088,3.086 19.794,2.379 20.501,1.673 21.209,2.379 21.916,3.086 37.915,19.088 38.622,19.794 39.328,20.501 
	38.622,21.209 37.915,21.916 21.916,37.915 21.209,38.622 "/>
<polygon opacity="0.06" points="20.502,37.914 19.795,37.207 3.794,21.209 3.087,20.502 3.794,19.795 19.795,3.794 20.502,3.087 
	21.209,3.794 37.207,19.795 37.914,20.502 37.207,21.209 21.209,37.207 "/>
<path fill="#999999" d="M20.501,4.501l-16,16l16,16l16-16L20.501,4.501z"/>
<polygon fill="#FFFFFF" points="20.5,33.673 7.329,20.5 20.5,7.329 33.673,20.5 "/>
<g>
	<polygon points="25.5,19 22,19 22,15.5 19,15.5 19,19 15.5,19 15.5,22 19,22 19,25.5 22,25.5 22,22 25.5,22 	"/>
</g>
</svg>
