<?xml version="1.0" encoding="UTF-8" standalone="no"?>
<!DOCTYPE svg PUBLIC "-//W3C//DTD SVG 1.1//EN" "http://www.w3.org/Graphics/SVG/1.1/DTD/svg11.dtd">
<svg id="svgElem" width="100%" height="100%" version="1.1" viewBox="0 0 4000 3000" xmlns="http://www.w3.org/2000/svg" xmlns:xlink="http://www.w3.org/1999/xlink" xmlns:drag="http://www.codedread.com/dragsvg" onload="initializeDraggableElements(); enableDrag(document.getElementById('widget'));" onmouseup="mouseUp(evt)" onmousemove="mouseMove(evt)" >
<script id="draggableLibrary" xlink:href="/javascripts/dragsvg.js" />
<script><![CDATA[
    function onwheel(evt) {
      var realtarget = evt.target;
      var delta = 0;
      
      // workaround bug in safari
      if(realtarget instanceof Text) {
        realtarget = realtarget.parentNode;
      }
      
      // mangle wheelDelta to get consistent crossbrowser results
      if(evt.wheelDelta) {
        delta = evt.wheelDelta / 120;
      } else if(evt.detail) {
        delta = -evt.detail / 3;
      }
      
      // In Safari delta can be zero and we're not interested in that
      if(delta) {
        b = realtarget.getBBox();
        
        try {
          tfm = realtarget.parentNode.transform.baseVal.getItem(1);
          tfm.setRotate(tfm.angle+delta, b.x+b.width/2, b.y+b.height/2);
        }
        catch(e){
        }
      }
    }
    
    function oncolor(color) {
      // the following line doesn't work properly in firefox; it doesn't add a 'style' attribute, and it doesn't update correctly
     // mousedown.target.style.fill = color;
    
     mousedown.target.style.setProperty("fill", color, null);
    }
    
    function init()
    {
      var root = document.documentElement;
      root.addEventListener("mousewheel", onwheel, false); // for opera and safari
      window.addEventListener("DOMMouseScroll", onwheel, false); // for firefox
      picker = new ColorPicker(20, 32, 10, oncolor, document);
    }
    
    function startedit(e)
    {
     if(!document.implementation.hasFeature("http://www.w3.org/Graphics/SVG/feature/1.2/#EditableTextAttribute", null)){
     alert("This browser doesn't claim to support editable text in svg. Try Opera 9.5 instead.");
     return;
     }
    
      editingelm = e;
      disableDrag(e.parentNode);
      e.style.cursor="text";
      e.setAttribute('editable','simple');
 
      if(document.documentElement.setFocus)
        document.documentElement.setFocus(e);
      else if(e.focus)
        e.focus();
        
      e.selectSubString(0,e.getNumberOfChars());
      e.addEventListener("DOMFocusOut", fn = function(){ stopedit(e); e.removeEventListener("DOMFocusOut", fn, false); }, false);
    }
    
    function stopedit(e)
    {
      e.removeAttribute('editable');
      e.style.cursor="move";
      enableDrag(e.parentNode);
      editingelm = null;
    }
    
    function incFontSize(id)
    {
    alert("ll");
      e = document.getElementById(id);
      if(e.getFloatTrait && e.setFloatTrait) {
        e.setFloatTrait("font-size", e.getFloatTrait("font-size") + 4);
      } else {
       var fs = getComputedStyle(e, "").getPropertyValue("font-size");
       fs = parseFloat(fs.substr(0, fs.indexOf("px")));
       e.setAttributeNS(null, "font-size", fs+4);
      }
    }
    
    function decFontSize(id)
    {
      e = document.getElementById(id);
      if(e.getFloatTrait && e.setFloatTrait) {
        e.setFloatTrait("font-size", e.getFloatTrait("font-size") - 4)
   } else {    
       var fs = getComputedStyle(e, "").getPropertyValue("font-size");
       fs = parseFloat(fs.substr(0, fs.indexOf("px")));
       e.setAttributeNS(null, "font-size", fs-4);
     }
    }
    
    function isAncestorOf(n, n2)
    {
     if(!n2 || !n)
     return false;
    
     var p = n2.parentNode;
     while(p)
     {
       if(p == n)
       return true;
      
       p = p.parentNode;
      }
      return false;
    }
    
    function beginFunc(id,evt)
    {
     isIn = (evt.type == 'mouseover');
    
     // filter: only if the relatedtarget was outside the g element do we do something
     if(isAncestorOf(evt.currentTarget, evt.relatedTarget)) {
   return;
   }
  
   if(!document.implementation.hasFeature("http://www.w3.org/TR/SVG11/feature#Animation", 1.1)) {
   a = document.getElementById(id);
   if(a) {
   a.parentNode.setAttributeNS(null, "opacity", isIn ? 1 : 0);
   } else {
   // workaround for odd firefox bug: can't find the 'a[123]' elements
   switch(id)
   {
   case "a1":
   a = "g11";
   break;
   case "a2":
   a = "g21";
   break;
   case "a3":
   a = "g31";
   break;
   }
   a = document.getElementById(a);
   a.setAttributeNS(null, "opacity", isIn ? 1 : 0);
   }
      } else {
        a = document.getElementById(id);
       if(a && a.parentNode.getPresentationTrait) {
         a.setAttributeNS(null, "from", a.parentNode.getPresentationTrait("opacity"));
         a.setAttributeNS(null, "to", isIn ? 1:0);
         b = a.cloneNode(false);
         a.parentNode.replaceChild(b, a);
          b.beginElement();
       }
      }
    }
    
  ]]></script>
<g id="sevent" clone="true" drag:enable="true" transform="translate(100,-3)" >
    <path fill-rule="evenodd" clip-rule="evenodd" fill="#999999" d="M29,5c13.255,0,24,10.745,24,24S42.255,53,29,53S5,42.255,5,29
	S15.745,5,29,5z"/>
<path fill-rule="evenodd" clip-rule="evenodd" fill="#FFFFFF" d="M29,50.999C16.869,50.999,7,41.13,7,29C7,16.869,16.869,7,29,7
	c12.129,0,21.999,9.869,21.999,22C50.999,41.13,41.13,50.999,29,50.999L29,50.999z"/>
</g>
<g id="eevent" drag:enable="true" transform="translate(200,-3)" >
<path opacity="0.06" fill-rule="evenodd" clip-rule="evenodd" d="M28.999,56.004c-14.887,0-27.001-12.114-27.001-27.005
	c0-14.887,12.114-27.001,27.001-27.001c14.891,0,27.005,12.114,27.005,27.001C56.004,43.89,43.89,56.004,28.999,56.004
	L28.999,56.004z"/>
<path opacity="0.06" fill-rule="evenodd" clip-rule="evenodd" d="M29,55.003C14.663,55.003,2.999,43.338,2.999,29
	C2.999,14.663,14.663,2.999,29,2.999c14.338,0,26.003,11.665,26.003,26.001C55.003,43.338,43.338,55.003,29,55.003L29,55.003z"/>
<path opacity="0.06" fill-rule="evenodd" clip-rule="evenodd" d="M29,54.002C15.216,54.002,4,42.786,4,29C4,15.216,15.216,4,29,4
	c13.786,0,25.002,11.216,25.002,25C54.002,42.786,42.786,54.002,29,54.002L29,54.002z"/>
<path fill-rule="evenodd" clip-rule="evenodd" fill="#999999" d="M29,5c13.255,0,24,10.745,24,24S42.255,53,29,53S5,42.255,5,29
	S15.745,5,29,5z"/>
<path fill-rule="evenodd" clip-rule="evenodd" fill="#FFFFFF" d="M29,50.999C16.869,50.999,7,41.13,7,29C7,16.869,16.869,7,29,7
	c12.129,0,21.999,9.869,21.999,22C50.999,41.13,41.13,50.999,29,50.999L29,50.999z"/>
	</g>
	
	
<g id="activity" drag:enable="true" transform="translate(300,-3)" onmouseover="beginFunc('a1',evt)" onmouseout="beginFunc('a1',evt)">	
	<path opacity="0.06" d="M88.001,57.002h-76C7.037,57.002,3,52.964,3,48V12c0-4.964,4.037-9.001,9.001-9.001h76
	c4.964,0,9.002,4.038,9.002,9.001v36C97.003,52.964,92.965,57.002,88.001,57.002L88.001,57.002z"/>
<path opacity="0.06" d="M88.001,56.002H12c-4.412,0-8.001-3.59-8.001-8.002V12c0-4.413,3.59-8.003,8.001-8.003h76.001
	c4.411,0,8.002,3.59,8.002,8.003v36C96.003,52.412,92.412,56.002,88.001,56.002L88.001,56.002z"/>
<path opacity="0.06" d="M88.001,55H12c-3.861,0-7.002-3.141-7.002-7V12.001C4.999,8.14,8.14,4.999,12,4.999h76
	c3.858,0,7,3.141,7,7.002V48C95.001,51.859,91.859,55,88.001,55L88.001,55z"/>
<path fill="#999999" d="M12,6h76c3.312,0,6,2.687,6,6v36c0,3.312-2.688,6-6,6H12c-3.313,0-6-2.688-6-6V12C6,8.687,8.687,6,12,6z"/>
<path fill="#FFFFFF" d="M88.001,52h-76C9.793,52,8,50.206,8,47.999V12c0-2.205,1.794-3.999,4.001-3.999h76
	C90.206,8.001,92,9.795,92,12v35.999C92,50.206,90.206,52,88.001,52L88.001,52z"/>
	
	 <g cursor="default" opacity="0" id="g11">
      
      <image id="a11" xlink:href="/images/a1.JPG" transform="translate(-13,-12)" image-rendering="optimizeQuality" width="22" height="22" pointer-events="none"/>
      <image id="a2" xlink:href="/images/a2.JPG" transform="translate(90,-12)" image-rendering="optimizeQuality" width="22" height="22" pointer-events="none"/>
      <image id="a2" xlink:href="/images/a3.JPG" transform="translate(-13,50)" image-rendering="optimizeQuality" width="22" height="22" pointer-events="none"/>
      <image id="a2" xlink:href="/images/a4.JPG" transform="translate(90,50)" image-rendering="optimizeQuality" width="22" height="22" pointer-events="none"/>
     </g>
	
	</g>
	
	
	
	
<g id="gateway-and-active" drag:enable="true" transform="translate(430,-3)" >

<polygon opacity="0.06" points="20.502,40.742 19.795,40.035 19.088,39.328 18.383,38.623 2.379,22.623 1.672,21.916 0.965,21.209 
	0.258,20.502 0.965,19.795 1.672,19.088 2.379,18.381 18.381,2.379 19.088,1.672 19.795,0.965 20.502,0.258 21.209,0.965 
	21.916,1.672 22.623,2.379 38.623,18.381 39.328,19.09 40.035,19.795 40.742,20.502 40.035,21.209 39.328,21.916 38.623,22.621 
	22.623,38.623 21.914,39.328 21.209,40.035 "/>
<polygon opacity="0.06" points="20.501,39.328 19.794,38.622 19.088,37.915 3.086,21.916 2.379,21.209 1.673,20.501 2.379,19.794 
	3.086,19.088 19.088,3.086 19.794,2.379 20.501,1.673 21.209,2.379 21.916,3.086 37.915,19.088 38.622,19.794 39.328,20.501 
	38.622,21.209 37.915,21.916 21.916,37.915 21.209,38.622 "/>
<polygon opacity="0.06" points="20.502,37.914 19.795,37.207 3.794,21.209 3.087,20.502 3.794,19.795 19.795,3.794 20.502,3.087 
	21.209,3.794 37.207,19.795 37.914,20.502 37.207,21.209 21.209,37.207 "/>
<path fill="#999999" d="M20.501,4.501l-16,16l16,16l16-16L20.501,4.501z"/>
<polygon fill="#FFFFFF" points="20.5,33.673 7.329,20.5 20.5,7.329 33.673,20.5 "/>
<g>
	<polygon points="25.5,19 22,19 22,15.5 19,15.5 19,19 15.5,19 15.5,22 19,22 19,25.5 22,25.5 22,22 25.5,22 	"/>
</g>
</g>

<g id="gateway-or-active" drag:enable="true" transform="translate(500,-3)" >
<polygon opacity="0.06" points="20.502,40.742 19.795,40.035 19.088,39.328 18.383,38.623 2.379,22.623 1.672,21.916 0.965,21.209 
	0.258,20.502 0.965,19.795 1.672,19.088 2.379,18.381 18.381,2.379 19.088,1.672 19.795,0.965 20.502,0.258 21.209,0.965 
	21.916,1.672 22.623,2.379 38.623,18.381 39.328,19.09 40.035,19.795 40.742,20.502 40.035,21.209 39.328,21.916 38.623,22.621 
	22.623,38.623 21.914,39.328 21.209,40.035 "/>
<polygon opacity="0.06" points="20.501,39.328 19.794,38.622 19.088,37.915 3.086,21.916 2.379,21.209 1.673,20.501 2.379,19.794 
	3.086,19.088 19.088,3.086 19.794,2.379 20.501,1.673 21.209,2.379 21.916,3.086 37.915,19.088 38.622,19.794 39.328,20.501 
	38.622,21.209 37.915,21.916 21.916,37.915 21.209,38.622 "/>
<polygon opacity="0.06" points="20.502,37.914 19.795,37.207 3.794,21.209 3.087,20.502 3.794,19.795 19.795,3.794 20.502,3.087 
	21.209,3.794 37.207,19.795 37.914,20.502 37.207,21.209 21.209,37.207 "/>
<path fill="#999999" d="M20.501,4.501l-16,16l16,16l16-16L20.501,4.501z"/>
<polygon fill="#FFFFFF" points="20.5,33.673 7.329,20.5 20.5,7.329 33.673,20.5 "/>
<g>
	<path fill-rule="evenodd" clip-rule="evenodd" d="M15.5,25.5h3v-10h-3V25.5z M22.5,15.5v10h3v-10H22.5z"/>
</g>
</g>

<g id="connection-line-h_12x2_active" drag:enable="true"  >
<line fill="none" stroke="#000000" stroke-width="2.0828" x1="600" y1="17" x2="1000" y2="17"/>
</g>

<g id="connection-line-v_2x12_active" drag:enable="true"  >
<line fill="none" stroke="#000000" stroke-width="2.0828" x1="1050" y1="0" x2="1050" y2="145"/>
</g>
<g id="connection-arrow-left_8x8_active" drag:enable="true" transform="translate(650,0)"  >
<path fill-rule="evenodd" clip-rule="evenodd" d="M8,8L0,4l8-4V8z"/>
</g>
<g id="connection-arrow-right_8x8_active" drag:enable="true" transform="translate(700,0)"  >
<path fill-rule="evenodd" clip-rule="evenodd" d="M0,0l8,4L0,8V0z"/>
</g>
<g id="connection-arrow-top_8x8_active" drag:enable="true" transform="translate(750,0)"  >
<path fill-rule="evenodd" clip-rule="evenodd" d="M0,8l4-8l4,8H0z"/>
</g>
<g id="connection-arrow-bottom_8x8_active" drag:enable="true" transform="translate(800,0)"  >
<path fill-rule="evenodd" clip-rule="evenodd" d="M8,0L4,8L0,0H8z"/>
</g>
 
<g id="zoom-out" transform="translate(850,0)" onclick="incFontSize('sevent')" focusHighlight="none">

	<path fill-rule="evenodd" clip-rule="evenodd" fill="#FFFFFF" d="M12.5,5c-0.553,0-1,0.448-1,1s0.447,1,1,1c0.552,0,1-0.448,1-1
		S13.052,5,12.5,5z M12,2C9.515,2,7.5,4.015,7.5,6.5c0,1.13,0.431,2.15,1.119,2.94L7.5,10l-3,3l2,2l3-3l0.692-1.384
		C10.746,10.859,11.355,11,12,11c2.485,0,4.5-2.015,4.5-4.5S14.485,2,12,2z M12,9c-1.381,0-2.5-1.119-2.5-2.5S10.619,4,12,4
		s2.5,1.119,2.5,2.5S13.381,9,12,9z M5.5,3h-5v1h5V3z "/>
</g>

<g id="zoom-in" transform="translate(900,0)" onclick="decFontSize('c')" focusHighlight="none">
	<path fill-rule="evenodd" clip-rule="evenodd" fill="#FFFFFF" d="M12,2C9.515,2,7.5,4.015,7.5,6.5c0,1.13,0.431,2.15,1.119,2.94
		L7.5,10l-3,3l2,2l3-3l0.692-1.384C10.746,10.859,11.355,11,12,11c2.485,0,4.5-2.015,4.5-4.5S14.485,2,12,2z M12,9
		c-1.381,0-2.5-1.119-2.5-2.5S10.619,4,12,4s2.5,1.119,2.5,2.5S13.381,9,12,9z M5.5,3h-2V1h-1v2h-2v1h2v2h1V4h2V3z M12.5,5
		c-0.553,0-1,0.448-1,1s0.447,1,1,1s1-0.448,1-1S13.053,5,12.5,5z "/>
</g>

</svg>