<?xml version="1.0" encoding="utf-8"?>
<!-- Generator: Adobe Illustrator 13.0.0, SVG Export Plug-In . SVG Version: 6.00 Build 14948)  -->
<!DOCTYPE svg PUBLIC "-//W3C//DTD SVG 1.1 Basic//EN" "http://www.w3.org/Graphics/SVG/1.1/DTD/svg11-basic.dtd">
<svg version="1.1" baseProfile="basic" id="Layer_1"
	 xmlns="http://www.w3.org/2000/svg" xmlns:xlink="http://www.w3.org/1999/xlink" x="0px" y="0px" width="42px" height="330px"
	 viewBox="0 0 42 330" xml:space="preserve">
<polygon opacity="0.06" points="40.001,327 39,327 38,327 37,327 5,327 4,327 3,327 1.999,327 1.999,326 1.999,325 1.999,323.999 
	1.999,5 1.999,4 1.999,2.999 1.999,1.999 3,1.999 4,1.999 5,1.999 37,1.999 38,1.999 39,1.999 40.001,1.999 40.001,2.999 40.001,4 
	40.001,5 40.001,323.999 40.001,325 40.001,326 40.001,327 "/>
<polygon opacity="0.06" points="39,326 38,326 37,326 5,326 4,326 3,326 3,324.999 3,323.999 3,5 3,4 3,3 4,3 5,3 37,3 38,3 39,3 
	39,4 39,5 39,323.999 39,324.999 39,326 "/>
<polygon opacity="0.06" points="38,324.999 37,324.999 5,324.999 4,324.999 4,323.999 4,5 4,4 5,4 37,4 38,4 38,5 38,323.999 
	38,324.999 "/>
<path fill="#CCCCCC" d="M5,5h32v319H5V5z"/>
<polygon fill="#EBEBEB" points="36,323 6,323 6,6 36,6 "/>
</svg>
