<?xml version="1.0" encoding="utf-8"?>
<!-- Generator: Adobe Illustrator 13.0.0, SVG Export Plug-In . SVG Version: 6.00 Build 14948)  -->
<!DOCTYPE svg PUBLIC "-//W3C//DTD SVG 1.1 Basic//EN" "http://www.w3.org/Graphics/SVG/1.1/DTD/svg11-basic.dtd">
<svg version="1.1" baseProfile="basic" id="Layer_1"
	 xmlns="http://www.w3.org/2000/svg" xmlns:xlink="http://www.w3.org/1999/xlink" x="0px" y="0px" width="42px" height="170px"
	 viewBox="0 0 42 170" xml:space="preserve">
<polygon opacity="0.06" fill-rule="evenodd" clip-rule="evenodd" points="39.998,167.996 38.998,167.996 37.999,167.996 37,167.996 
	5,167.996 4,167.996 3.001,167.996 2.002,167.996 2.002,166.997 2.002,165.998 2.002,164.999 2.002,5.001 2.002,4.002 2.002,3.002 
	2.002,2.003 3.001,2.003 4,2.003 5,2.003 37,2.003 37.999,2.003 38.998,2.003 39.998,2.003 39.998,3.002 39.998,4.002 39.998,5.001 
	39.998,164.999 39.998,165.998 39.998,166.997 39.998,167.996 "/>
<polygon opacity="0.06" fill-rule="evenodd" clip-rule="evenodd" points="38.998,166.998 37.999,166.998 37,166.998 5,166.998 
	4,166.998 3.001,166.998 3.001,165.998 3.001,164.999 3.001,5 3.001,4.001 3.001,3.002 4,3.002 5,3.002 37,3.002 37.999,3.002 
	38.998,3.002 38.998,4.001 38.998,5 38.998,164.999 38.998,165.998 38.998,166.998 "/>
<polygon opacity="0.06" fill-rule="evenodd" clip-rule="evenodd" points="37.999,165.999 37,165.999 5,165.999 4,165.999 4,165 4,5 
	4,4.001 5,4.001 37,4.001 37.999,4.001 37.999,5 37.999,165 37.999,165.999 "/>
<path fill-rule="evenodd" clip-rule="evenodd" fill="#CCCCCC" d="M5,5h32v160H5V5z"/>
<polygon fill-rule="evenodd" clip-rule="evenodd" fill="#EBEBEB" points="36.001,164.001 5.999,164.001 5.999,5.999 36.001,5.999 
	36.001,164.001 "/>
</svg>
