<?xml version="1.0" encoding="utf-8"?>
<!-- Generator: Adobe Illustrator 13.0.0, SVG Export Plug-In . SVG Version: 6.00 Build 14948)  -->
<!DOCTYPE svg PUBLIC "-//W3C//DTD SVG 1.1 Basic//EN" "http://www.w3.org/Graphics/SVG/1.1/DTD/svg11-basic.dtd">
<svg version="1.1" baseProfile="basic" id="Layer_1"
	 xmlns="http://www.w3.org/2000/svg" xmlns:xlink="http://www.w3.org/1999/xlink" x="0px" y="0px" width="18px" height="18px"
	 viewBox="0 0 18 18" xml:space="preserve">
<rect x="3.999" y="4" opacity="0.2" width="8.001" height="8"/>
<path fill="#FFFFFF" d="M11,2H5C3.343,2,2,3.343,2,5v6c0,1.656,1.343,3,3,3h6c1.657,0,3-1.344,3-3V5C14,3.343,12.657,2,11,2z
	 M12,10.999C12,11.551,11.551,12,10.999,12H5c-0.552,0-1.001-0.449-1.001-1.001V5C4,4.449,4.449,4,5,4h5.999C11.551,4,12,4.449,12,5
	V10.999z"/>
</svg>
