<?xml version="1.0" encoding="utf-8"?>
<!-- Generator: Adobe Illustrator 13.0.0, SVG Export Plug-In . SVG Version: 6.00 Build 14948)  -->
<!DOCTYPE svg PUBLIC "-//W3C//DTD SVG 1.1 Basic//EN" "http://www.w3.org/Graphics/SVG/1.1/DTD/svg11-basic.dtd">
<svg version="1.1" baseProfile="basic" id="Layer_1"
	 xmlns="http://www.w3.org/2000/svg" xmlns:xlink="http://www.w3.org/1999/xlink" x="0px" y="0px" width="18px" height="18px"
	 viewBox="0 0 18 18" xml:space="preserve">
<g>
	<path fill-rule="evenodd" clip-rule="evenodd" fill="#FFFFFF" d="M8,4.5C8,4.776,8.225,5,8.5,5C8.776,5,9,4.776,9,4.5
		S8.776,4,8.5,4C8.225,4,8,4.224,8,4.5z M5,4.5C5,4.776,5.225,5,5.5,5S6,4.776,6,4.5S5.775,4,5.5,4S5,4.224,5,4.5z M3,4h2.5
		C5.225,4,5,3.776,5,3.5C5,3.224,5.225,3,5.5,3S6,3.224,6,3.5C6,3.776,5.775,4,5.5,4h3C8.225,4,8,3.776,8,3.5C8,3.224,8.225,3,8.5,3
		C8.776,3,9,3.224,9,3.5C9,3.776,8.776,4,8.5,4H11v1h1V4l-1-1H9L8,2H6L5,3H3L2,4v9l1,1h4v-1H3V4z M12,6H8v9h6V8L12,6z M13,14H9v-1h4
		V14z M13,12H9v-1h4V12z M13,10H9V9h4V10z"/>
</g>
</svg>
