<?xml version="1.0" encoding="utf-8"?>
<!-- Generator: Adobe Illustrator 13.0.0, SVG Export Plug-In . SVG Version: 6.00 Build 14948)  -->
<!DOCTYPE svg PUBLIC "-//W3C//DTD SVG 1.1 Basic//EN" "http://www.w3.org/Graphics/SVG/1.1/DTD/svg11-basic.dtd">
<svg version="1.1" baseProfile="basic" id="Layer_1"
	 xmlns="http://www.w3.org/2000/svg" xmlns:xlink="http://www.w3.org/1999/xlink" x="0px" y="0px" width="18px" height="18px"
	 viewBox="0 0 18 18" xml:space="preserve">
<g>
	<path fill-rule="evenodd" clip-rule="evenodd" fill="#FFFFFF" d="M5,6h6c1.104,0,2-0.896,2-2s-0.896-2-2-2H5C3.896,2,3,2.896,3,4
		S3.896,6,5,6z M5,3h6c0.553,0,1,0.448,1,1s-0.447,1-1,1H5C4.447,5,4,4.552,4,4S4.447,3,5,3z M8,7C7.447,7,7,7.224,7,7.5
		C7,7.776,7.447,8,8,8s1-0.224,1-0.5C9,7.224,8.553,7,8,7z M11.5,11h-7C3.672,11,3,11.672,3,12.5S3.672,14,4.5,14h7
		c0.828,0,1.5-0.672,1.5-1.5S12.328,11,11.5,11z M8,9C7.447,9,7,9.224,7,9.5C7,9.776,7.447,10,8,10s1-0.224,1-0.5
		C9,9.224,8.553,9,8,9z"/>
</g>
</svg>
