<?xml version="1.0" encoding="utf-8"?>
<!-- Generator: Adobe Illustrator 13.0.0, SVG Export Plug-In . SVG Version: 6.00 Build 14948)  -->
<!DOCTYPE svg PUBLIC "-//W3C//DTD SVG 1.1 Basic//EN" "http://www.w3.org/Graphics/SVG/1.1/DTD/svg11-basic.dtd">
<svg version="1.1" baseProfile="basic" id="Layer_1"
	 xmlns="http://www.w3.org/2000/svg" xmlns:xlink="http://www.w3.org/1999/xlink" x="0px" y="0px" width="13px" height="13px"
	 viewBox="0 0 13 13" xml:space="preserve">
<path fill-rule="evenodd" clip-rule="evenodd" fill="#7F7F7F" d="M6.5,0C10.09,0,13,2.91,13,6.5S10.09,13,6.5,13S0,10.09,0,6.5
	S2.91,0,6.5,0z"/>
<g>
	<path fill-rule="evenodd" clip-rule="evenodd" fill="#FFFFFF" d="M6.5,2C4.015,2,2,4.015,2,6.5S4.015,11,6.5,11S11,8.985,11,6.5
		S8.985,2,6.5,2z M6.5,9C5.119,9,4,7.881,4,6.5S5.119,4,6.5,4S9,5.119,9,6.5S7.881,9,6.5,9z"/>
</g>
</svg>
