<?xml version="1.0" encoding="utf-8"?>
<!-- Generator: Adobe Illustrator 13.0.0, SVG Export Plug-In . SVG Version: 6.00 Build 14948)  -->
<!DOCTYPE svg PUBLIC "-//W3C//DTD SVG 1.1 Basic//EN" "http://www.w3.org/Graphics/SVG/1.1/DTD/svg11-basic.dtd">
<svg version="1.1" baseProfile="basic" id="Layer_1"
	 xmlns="http://www.w3.org/2000/svg" xmlns:xlink="http://www.w3.org/1999/xlink" x="0px" y="0px" width="18px" height="18px"
	 viewBox="0 0 18 18" xml:space="preserve">
<g>
	<path fill-rule="evenodd" clip-rule="evenodd" fill="#FFFFFF" d="M10.562,2H2.5v3h10V4L10.562,2z M2.5,15h10v-1h-10V15z"/>
</g>
<path fill="#FFFFFF" d="M2.5,12.059V7h1.377c0.611,0,1.05,0.103,1.316,0.31c0.267,0.206,0.4,0.545,0.4,1.017
	c0,0.538-0.183,0.959-0.547,1.265c-0.365,0.306-0.871,0.458-1.518,0.458H3.211v2.01H2.5z M3.211,9.506h0.291
	c0.426,0,0.755-0.099,0.987-0.295c0.232-0.195,0.349-0.472,0.349-0.83c0-0.303-0.092-0.52-0.273-0.649S4.078,7.537,3.652,7.537
	H3.211V9.506z"/>
<path fill="#FFFFFF" d="M6.869,12.059V7h1.682c0.502,0,0.906,0.056,1.215,0.167s0.576,0.301,0.802,0.567
	c0.358,0.424,0.536,0.982,0.536,1.675c0,0.84-0.222,1.492-0.666,1.955c-0.444,0.462-1.07,0.693-1.877,0.693H6.869z M7.587,11.521
	h0.919c0.656,0,1.121-0.176,1.395-0.529c0.295-0.376,0.441-0.881,0.441-1.514c0-0.595-0.145-1.062-0.434-1.402
	C9.732,7.869,9.522,7.728,9.279,7.651C9.035,7.575,8.668,7.537,8.178,7.537H7.587V11.521z"/>
<path fill="#FFFFFF" d="M12.612,12.059V7h2.827v0.537H13.33v1.696h1.771v0.529H13.33v2.297H12.612z"/>
</svg>
