<?xml version="1.0" encoding="utf-8"?>
<!-- Generator: Adobe Illustrator 13.0.0, SVG Export Plug-In . SVG Version: 6.00 Build 14948)  -->
<!DOCTYPE svg PUBLIC "-//W3C//DTD SVG 1.1 Basic//EN" "http://www.w3.org/Graphics/SVG/1.1/DTD/svg11-basic.dtd">
<svg version="1.1" baseProfile="basic" id="Layer_1"
	 xmlns="http://www.w3.org/2000/svg" xmlns:xlink="http://www.w3.org/1999/xlink" x="0px" y="0px" width="18px" height="18px"
	 viewBox="0 0 18 18" xml:space="preserve">
<g>
	<path fill-rule="evenodd" clip-rule="evenodd" fill="#FFFFFF" d="M12.5,5c-0.553,0-1,0.448-1,1s0.447,1,1,1c0.552,0,1-0.448,1-1
		S13.052,5,12.5,5z M12,2C9.515,2,7.5,4.015,7.5,6.5c0,1.13,0.431,2.15,1.119,2.94L7.5,10l-3,3l2,2l3-3l0.692-1.384
		C10.746,10.859,11.355,11,12,11c2.485,0,4.5-2.015,4.5-4.5S14.485,2,12,2z M12,9c-1.381,0-2.5-1.119-2.5-2.5S10.619,4,12,4
		s2.5,1.119,2.5,2.5S13.381,9,12,9z M5.5,3h-5v1h5V3z"/>
</g>
</svg>
