<?xml version="1.0" encoding="utf-8"?>
<!-- Generator: Adobe Illustrator 13.0.0, SVG Export Plug-In . SVG Version: 6.00 Build 14948)  -->
<!DOCTYPE svg PUBLIC "-//W3C//DTD SVG 1.1 Basic//EN" "http://www.w3.org/Graphics/SVG/1.1/DTD/svg11-basic.dtd">
<svg version="1.1" baseProfile="basic" id="Layer_1"
	 xmlns="http://www.w3.org/2000/svg" xmlns:xlink="http://www.w3.org/1999/xlink" x="0px" y="0px" width="18px" height="18px"
	 viewBox="0 0 18 18" xml:space="preserve">
<path fill-rule="evenodd" clip-rule="evenodd" fill="#FFFFFF" d="M11.833,15h-5.89c0,0-0.722-3.382-1.457-4.764
	C3.75,8.854,1.941,6.034,3.625,5.582c0.746-0.201,1.231,2.98,2.024,2.509c0.576-0.343-1.089-4.644,0.567-4.644
	s0.537,4.644,1.31,4.607C8.3,8.018,7.195,2.964,9.036,3c1.84,0.037-0.222,4.836,0.662,4.909c0.363,0.03,0.604-1.298,1.041-2.141
	c0.624-1.206,1.253-1.826,2.383-1.532c1.188,0.309-0.47,1.761-0.898,2.472c-0.284,0.473-1.1,2.577-0.564,3.069
	c0.347,0.318,2.414-2.798,3.217-1.359c0.994,1.782-2.122,2.582-2.38,4.037C12.238,13.909,11.833,15,11.833,15z"/>
</svg>
