<?xml version="1.0" encoding="utf-8"?>
<!-- Generator: Adobe Illustrator 13.0.0, SVG Export Plug-In . SVG Version: 6.00 Build 14948)  -->
<!DOCTYPE svg PUBLIC "-//W3C//DTD SVG 1.1 Basic//EN" "http://www.w3.org/Graphics/SVG/1.1/DTD/svg11-basic.dtd">
<svg version="1.1" baseProfile="basic" id="Layer_1"
	 xmlns="http://www.w3.org/2000/svg" xmlns:xlink="http://www.w3.org/1999/xlink" x="0px" y="0px" width="18px" height="18px"
	 viewBox="0 0 18 18" xml:space="preserve">
<g>
	<path fill-rule="evenodd" clip-rule="evenodd" fill="#FFFFFF" d="M3.551,11.303c-0.929,1.326-0.822,3.004,0.24,3.747
		c1.061,0.744,2.674,0.271,3.604-1.057c0.929-1.326,0.821-3.004-0.24-3.747S4.479,9.976,3.551,11.303z M6.481,11.207
		c0.53,0.371,0.509,1.317-0.048,2.113c-0.558,0.796-1.439,1.141-1.97,0.769c-0.531-0.371-0.509-1.317,0.048-2.114
		C5.068,11.179,5.951,10.835,6.481,11.207z M13.449,11.303c-0.929-1.327-2.542-1.8-3.604-1.057s-1.169,2.421-0.24,3.747
		c0.93,1.327,2.543,1.801,3.604,1.057C14.271,14.307,14.379,12.629,13.449,11.303z M12.537,14.089
		c-0.531,0.372-1.413,0.027-1.971-0.769c-0.557-0.796-0.578-1.742-0.048-2.113c0.53-0.372,1.413-0.028,1.97,0.768
		C13.046,12.771,13.067,13.718,12.537,14.089z M10.134,8.612L9.906,8.361l3.592-5.129l-0.289-1.634L8.5,6.806L3.791,1.598
		L3.502,3.232l3.591,5.129L6.866,8.612c-0.372,0.531-0.243,1.262,0.288,1.634c0.418,0.292,0.953,0.265,1.346-0.014
		c0.393,0.278,0.928,0.306,1.346,0.014C10.377,9.874,10.506,9.143,10.134,8.612z"/>
</g>
</svg>
