<?xml version="1.0" encoding="utf-8"?>
<!-- Generator: Adobe Illustrator 13.0.0, SVG Export Plug-In . SVG Version: 6.00 Build 14948)  -->
<!DOCTYPE svg PUBLIC "-//W3C//DTD SVG 1.1 Basic//EN" "http://www.w3.org/Graphics/SVG/1.1/DTD/svg11-basic.dtd">
<svg version="1.1" baseProfile="basic" id="Layer_1"
	 xmlns="http://www.w3.org/2000/svg" xmlns:xlink="http://www.w3.org/1999/xlink" x="0px" y="0px" width="18px" height="18px"
	 viewBox="0 0 18 18" xml:space="preserve">
<g>
	<path fill-rule="evenodd" clip-rule="evenodd" fill="#FFFFFF" d="M2,2v4h12V2H2z M13,5H3V3h10V5z M2,14h12v-3H2V14z M8,8
		c0.553,0,1-0.224,1-0.5C9,7.224,8.553,7,8,7S7,7.224,7,7.5C7,7.776,7.447,8,8,8z M8,10c0.553,0,1-0.224,1-0.5C9,9.224,8.553,9,8,9
		S7,9.224,7,9.5C7,9.776,7.447,10,8,10z"/>
</g>
</svg>
