<?xml version="1.0" encoding="utf-8"?>
<!-- Generator: Adobe Illustrator 13.0.0, SVG Export Plug-In . SVG Version: 6.00 Build 14948)  -->
<!DOCTYPE svg PUBLIC "-//W3C//DTD SVG 1.1 Basic//EN" "http://www.w3.org/Graphics/SVG/1.1/DTD/svg11-basic.dtd">
<svg version="1.1" baseProfile="basic" id="Layer_1"
	 xmlns="http://www.w3.org/2000/svg" xmlns:xlink="http://www.w3.org/1999/xlink" x="0px" y="0px" width="18px" height="18px"
	 viewBox="0 0 18 18" xml:space="preserve">
<g>
	<g>
		<path fill-rule="evenodd" clip-rule="evenodd" fill="#FFFFFF" d="M10.062,2H4v6h8V4L10.062,2z M4,15h8v-2H4V15z"/>
	</g>
	<g>
		<path fill-rule="evenodd" clip-rule="evenodd" fill="#FFFFFF" d="M14.125,6h-1.438v3H3.312V6H1.938L1,7v6l1.062,1h1.25v-2h9.375v2
			h1.375L15,13V7L14.125,6z M2.5,9C2.225,9,2,8.776,2,8.5S2.225,8,2.5,8C2.776,8,3,8.224,3,8.5S2.776,9,2.5,9z M11.5,11h-7
			C4.225,11,4,10.776,4,10.5C4,10.225,4.225,10,4.5,10h7c0.276,0,0.5,0.225,0.5,0.5C12,10.776,11.776,11,11.5,11z M13.5,11
			c-0.275,0-0.5-0.224-0.5-0.5c0-0.275,0.225-0.5,0.5-0.5c0.276,0,0.5,0.225,0.5,0.5C14,10.776,13.776,11,13.5,11z M13.5,9
			C13.225,9,13,8.776,13,8.5S13.225,8,13.5,8C13.776,8,14,8.224,14,8.5S13.776,9,13.5,9z"/>
	</g>
</g>
</svg>
