<?xml version="1.0" encoding="utf-8"?>
<!-- Generator: Adobe Illustrator 13.0.0, SVG Export Plug-In . SVG Version: 6.00 Build 14948)  -->
<!DOCTYPE svg PUBLIC "-//W3C//DTD SVG 1.1 Basic//EN" "http://www.w3.org/Graphics/SVG/1.1/DTD/svg11-basic.dtd">
<svg version="1.1" baseProfile="basic" id="Layer_1"
	 xmlns="http://www.w3.org/2000/svg" xmlns:xlink="http://www.w3.org/1999/xlink" x="0px" y="0px" width="24px" height="24px"
	 viewBox="0 0 24 24" xml:space="preserve">
<rect x="8" y="8" opacity="0.2" fill-rule="evenodd" clip-rule="evenodd" width="8" height="8"/>
<g>
	<path fill-rule="evenodd" clip-rule="evenodd" fill="#FFFFFF" d="M20,6v2h2V6H20z M17,4h2V2h-2V4z M6,4h2V2H6V4z M16,22h2v-2h-2V22
		z M6,22h2v-2H6V22z M20,18h2v-2h-2V18z M2,18h2v-2H2V18z M2,8h2V6H2V8z"/>
</g>
<path fill-rule="evenodd" clip-rule="evenodd" fill="#FFFFFF" d="M6,6v12h12V6H6z M16.001,16.001H8V8h8V16.001z"/>
</svg>
