<?xml version="1.0" encoding="utf-8"?>
<!-- Generator: Adobe Illustrator 13.0.0, SVG Export Plug-In . SVG Version: 6.00 Build 14948)  -->
<!DOCTYPE svg PUBLIC "-//W3C//DTD SVG 1.1 Basic//EN" "http://www.w3.org/Graphics/SVG/1.1/DTD/svg11-basic.dtd">
<svg version="1.1" baseProfile="basic" id="Layer_1"
	 xmlns="http://www.w3.org/2000/svg" xmlns:xlink="http://www.w3.org/1999/xlink" x="0px" y="0px" width="24px" height="24px"
	 viewBox="0 0 24 24" xml:space="preserve">
<rect x="5.001" y="5.001" opacity="0.2" width="13.998" height="13.998"/>
<path fill="#FFFFFF" d="M17,3H7C4.791,3,3,4.791,3,7v10c0,2.209,1.791,4,4,4h10c2.209,0,4-1.791,4-4V7C21,4.791,19.209,3,17,3z
	 M18.999,17.001c0,1.103-0.896,1.998-1.998,1.998H6.999c-1.102,0-1.998-0.896-1.998-1.998V6.999c0-1.102,0.896-1.998,1.998-1.998
	h10.002c1.103,0,1.998,0.896,1.998,1.998V17.001z"/>
</svg>
