<?xml version="1.0" encoding="utf-8"?>
<!-- Generator: Adobe Illustrator 13.0.0, SVG Export Plug-In . SVG Version: 6.00 Build 14948)  -->
<!DOCTYPE svg PUBLIC "-//W3C//DTD SVG 1.1 Basic//EN" "http://www.w3.org/Graphics/SVG/1.1/DTD/svg11-basic.dtd">
<svg version="1.1" baseProfile="basic" id="Layer_1"
	 xmlns="http://www.w3.org/2000/svg" xmlns:xlink="http://www.w3.org/1999/xlink" x="0px" y="0px" width="24px" height="24px"
	 viewBox="0 0 24 24" xml:space="preserve">
<path opacity="0.2" fill-rule="evenodd" clip-rule="evenodd" d="M12,19.083c-3.906,0-7.083-3.177-7.083-7.083S8.094,4.917,12,4.917
	S19.083,8.094,19.083,12S15.906,19.083,12,19.083L12,19.083z"/>
<path fill-rule="evenodd" clip-rule="evenodd" fill="#FFFFFF" d="M12,2.917c-5.017,0-9.083,4.067-9.083,9.083
	c0,5.016,4.066,9.083,9.083,9.083s9.083-4.066,9.083-9.083C21.083,6.984,17.017,2.917,12,2.917z M12,19.083
	c-3.906,0-7.083-3.177-7.083-7.083S8.094,4.917,12,4.917S19.083,8.094,19.083,12S15.906,19.083,12,19.083z"/>
<path fill-rule="evenodd" clip-rule="evenodd" fill="#FFFFFF" d="M12,6.55c-3.01,0-5.45,2.44-5.45,5.45c0,3.011,2.44,5.45,5.45,5.45
	c3.011,0,5.45-2.439,5.45-5.45C17.45,8.99,15.011,6.55,12,6.55z M12,15.45c-1.902,0-3.451-1.549-3.451-3.45
	c0-1.902,1.549-3.451,3.451-3.451c1.901,0,3.45,1.549,3.45,3.451C15.45,13.901,13.901,15.45,12,15.45z"/>
</svg>
