<?xml version="1.0" encoding="utf-8"?>
<!-- Generator: Adobe Illustrator 13.0.0, SVG Export Plug-In . SVG Version: 6.00 Build 14948)  -->
<!DOCTYPE svg PUBLIC "-//W3C//DTD SVG 1.1 Basic//EN" "http://www.w3.org/Graphics/SVG/1.1/DTD/svg11-basic.dtd">
<svg version="1.1" baseProfile="basic" id="Layer_1"
	 xmlns="http://www.w3.org/2000/svg" xmlns:xlink="http://www.w3.org/1999/xlink" x="0px" y="0px" width="24px" height="24px"
	 viewBox="0 0 24 24" xml:space="preserve">
<path opacity="0.2" fill-rule="evenodd" clip-rule="evenodd" d="M4,12l8-8l8,8l-8,8L4,12z"/>
<path fill-rule="evenodd" clip-rule="evenodd" fill="#FFFFFF" d="M12,1.5L1.5,12L12,22.5L22.5,12L12,1.5z M4.327,12L12,4.327
	L19.673,12L12,19.673L4.327,12z"/>
<path fill-rule="evenodd" clip-rule="evenodd" fill="#FFFFFF" d="M12,7.528c-2.47,0-4.472,2.004-4.472,4.474
	c0,2.467,2.002,4.471,4.472,4.471c2.469,0,4.471-2.004,4.471-4.471C16.472,9.532,14.47,7.528,12,7.528z M12,14.474
	c-1.363,0-2.473-1.11-2.473-2.471c0-1.365,1.11-2.475,2.473-2.475c1.361,0,2.471,1.11,2.471,2.475
	C14.472,13.363,13.361,14.474,12,14.474z"/>
</svg>
