<?xml version="1.0" encoding="utf-8"?>
<!-- Generator: Adobe Illustrator 13.0.0, SVG Export Plug-In . SVG Version: 6.00 Build 14948)  -->
<!DOCTYPE svg PUBLIC "-//W3C//DTD SVG 1.1 Basic//EN" "http://www.w3.org/Graphics/SVG/1.1/DTD/svg11-basic.dtd">
<svg version="1.1" baseProfile="basic" id="Layer_1"
	 xmlns="http://www.w3.org/2000/svg" xmlns:xlink="http://www.w3.org/1999/xlink" x="0px" y="0px" width="24px" height="24px"
	 viewBox="0 0 24 24" xml:space="preserve">
<path opacity="0.2" fill-rule="evenodd" clip-rule="evenodd" d="M4,12l8-8l8,8l-8,8L4,12z"/>
<path fill-rule="evenodd" clip-rule="evenodd" fill="#FFFFFF" d="M12,1.5L1.5,12L12,22.5L22.5,12L12,1.5z M4.327,12L12,4.327
	L19.673,12L12,19.673L4.327,12z"/>
<g>
	<polygon fill-rule="evenodd" clip-rule="evenodd" fill="#FFFFFF" points="16.666,11.293 13.708,11.293 15.791,9.21 14.797,8.216 
		12.705,10.309 12.705,7.334 11.301,7.334 11.301,10.318 9.193,8.211 8.2,9.205 10.288,11.293 7.334,11.293 7.334,12.699 
		10.314,12.699 8.2,14.814 9.193,15.809 11.301,13.701 11.301,16.666 12.705,16.666 12.705,13.711 14.797,15.803 15.791,14.809 
		13.682,12.699 16.666,12.699 	"/>
</g>
</svg>
